
        <svg xmlns="http://www.w3.org/2000/svg" xmlns:xlink="http://www.w3.org/1999/xlink" version="1.1" width="3171.4285714285716" height="1419.1409170821387" viewBox="0 0 3171.4285714285716 1419.1409170821387">
			
			<g transform="scale(8.571428571428571) translate(10, 10)">
				<defs id="SvgjsDefs4374"/><g id="SvgjsG4375" featureKey="mugSzh-0" transform="matrix(0.10855427281649944,0,0,0.10855427281649944,121.38813390752607,-12.299199441390737)" fill="#000"><g xmlns="http://www.w3.org/2000/svg"><g><path d="M669.6,164.4c18.6-4.6,30.4,6.1,40.4,25.1c16.9,32.3,36.1,63.5,54.9,94.9c7,11.6,7.8,21.6,0.6,33.8    c-36,61.2-71.4,122.6-106.6,184.2c-7.9,13.9-11.8,13-21.7,0.3c-21.6-27.7-20.6-51.5-0.4-80.5c23.7-34,41.8-71.8,63.1-107.5    c6-10.1,5.4-17.8-0.4-27.5c-19.5-32.6-38.5-65.5-57.1-98.6c-12.5-22.3-11.3-23.9,15.2-24.1C660.3,164.4,663.2,164.4,669.6,164.4z"/></g><g><path d="M875.2,477.6c13.3,13.7,10,29.4-1.4,47.5c-19.4,30.9-36.7,63.2-54.3,95.2c-6.5,11.8-14.8,17.6-28.9,17.6    c-70.9-0.3-141.9,0-212.8,0.6c-16,0.1-17.2-3.6-11.2-18.7c13.1-32.6,34.2-43.7,69.3-40.9c41.3,3.4,83.1-0.1,124.6,0.4    c11.7,0.1,18.1-4.2,23.6-14.2c18.3-33.3,37.2-66.2,56.5-99c13-22.1,15-21.8,28.5,1C870.6,469.6,872,472,875.2,477.6z"/></g><g><path d="M708.1,812.8c-5.1,18.4-20.4,23.5-41.7,22.7c-36.5-1.2-73.1,0.1-109.6,1c-13.5,0.3-22.6-3.9-29.7-16.1    c-35.5-61.4-71.5-122.6-107.7-183.6c-8.2-13.8-5.5-16.7,10.5-19c34.8-5.1,55,7.5,70.2,39.3C518,694.5,542,728.9,562.5,765    c5.8,10.2,12.8,13.5,24.2,13.2c38-0.9,76-1.2,113.9-1c25.6,0.1,26.3,2,13.5,25.1C712.7,804.8,711.3,807.3,708.1,812.8z"/></g><g><path d="M334.4,837.3c-18.5,4.8-30.5-5.8-40.6-24.6c-17.3-32.1-36.9-63.1-56-94.2c-7.1-11.5-8-21.5-1-33.8    c35.2-61.6,69.9-123.5,104.4-185.5c7.8-14,11.6-13.2,21.7-0.5c21.9,27.5,21.2,51.3,1.4,80.5c-23.3,34.3-40.9,72.3-61.8,108.2    c-5.9,10.2-5.2,17.9,0.7,27.5c19.9,32.3,39.2,65,58.3,97.9c12.8,22.2,11.6,23.8-14.9,24.3C343.6,837.2,340.7,837.2,334.4,837.3z"/></g><g><path d="M125.1,526.6c-13.5-13.6-10.4-29.3,0.8-47.5c19.1-31.1,36-63.6,53.2-95.9c6.4-11.9,14.5-17.8,28.7-17.9    c70.9-0.5,141.9-1.7,212.8-3.1c16-0.3,17.2,3.4,11.4,18.5c-12.7,32.8-33.6,44.1-68.8,41.7c-41.3-2.9-83.1,1-124.6,1.1    c-11.7,0-18.1,4.5-23.4,14.5c-17.9,33.5-36.4,66.7-55.3,99.6c-12.7,22.2-14.7,21.9-28.5-0.6C129.8,534.6,128.3,532.1,125.1,526.6z    "/></g><g><path d="M288.1,189.4c4.9-18.5,20.1-23.7,41.4-23.2c36.5,0.8,73.1-1,109.6-2.3c13.5-0.5,22.7,3.6,29.9,15.8    c36.2,61,72.9,121.7,109.9,182.3c8.3,13.7,5.7,16.6-10.3,19.2c-34.7,5.5-55.1-6.9-70.7-38.5c-18.3-37.1-42.7-71.2-63.7-107.1    c-5.9-10.1-12.9-13.4-24.3-13c-38,1.4-75.9,2.1-113.9,2.4c-25.6,0.2-26.4-1.7-13.8-24.9C283.6,197.5,285,195,288.1,189.4z"/></g><path d="M406.4,273c-41.2,0.2-82.4,1.8-123.6,1.9c-9.2-15.7-26.4-26.3-45.9-26.3c-29.4,0-53.3,23.9-53.3,53.3   s23.9,53.3,53.3,53.3c18.4,0,34.6-9.3,44.2-23.5c28-1.1,56.1-2.5,83.9-0.4c29.3,2.2,42.8-12.5,54.7-34.2   C430.2,277.6,428.2,272.9,406.4,273z M236.9,329.8c-2.6,0-5.2-0.4-7.6-1c-11.7-3.3-20.3-14.1-20.3-26.9c0-15.4,12.5-27.9,27.9-27.9   c4.6,0,9,1.1,12.9,3.1c8.9,4.7,15,14,15,24.8C264.8,317.3,252.3,329.8,236.9,329.8z"/><path d="M284.3,467.2c-11.4-18.9-16.6-19.6-27.4-0.7c-22.2,38.5-42.9,77.8-65.4,116.1c-0.4,0.7-0.8,1.4-1.2,2   c-28.6,0.8-51.7,24.4-51.7,53.2c0,29.4,23.9,53.3,53.3,53.3s53.3-23.9,53.3-53.3c0-8.6-2.1-16.8-5.7-24c15-27.8,29.1-56.2,47-82.1   C303,507.5,297,488.4,284.3,467.2z M218.3,646.6c-3.7,11.1-14.2,19.2-26.5,19.2c-15.4,0-27.9-12.5-27.9-27.9c0-11.5,7-21.5,17-25.7   c3.3-1.4,7-2.2,10.9-2.2c15.4,0,27.9,12.5,27.9,27.9C219.7,640.9,219.2,643.8,218.3,646.6z"/><path d="M653.5,308.4c-20.7-37.2-42.8-73.6-63.3-110.9c6.3-8.7,9.9-19.4,9.9-30.9c0-29.4-23.9-53.3-53.3-53.3   s-53.3,23.9-53.3,53.3c0,25.9,18.6,47.6,43.2,52.3c16,26.8,32.8,53.1,45.6,81.3c12.2,26.8,31.6,31.5,56.4,31.4   C660.9,331.5,664.1,327.4,653.5,308.4z M574,173c-2.9,12.3-14,21.5-27.2,21.5c-11.9,0-22.2-7.6-26.1-18.1c-1.1-3-1.8-6.3-1.8-9.8   c0-15.4,12.5-27.9,27.9-27.9c15.4,0,27.9,12.5,27.9,27.9C574.8,168.8,574.5,170.9,574,173z"/><path d="M812.9,317.4c-29.4,0-53.3,23.9-53.3,53.3c0,6.1,1,11.9,2.9,17.3v0c-15.6,28-30.2,56.6-48.5,82.6   c-17,24-11.3,43.2,1.2,64.5c11.2,19.1,16.4,19.8,27.4,1.1c22.1-37.3,42.8-75.4,65.1-112.5c1.7,0.2,3.4,0.2,5.1,0.2   c29.4,0,53.3-23.9,53.3-53.3S842.3,317.4,812.9,317.4z M820,397.6c-2.3,0.6-4.6,0.9-7.1,0.9c-15.4,0-27.9-12.5-27.9-27.9   c0-5.8,1.8-11.2,4.9-15.7c5-7.4,13.5-12.2,23-12.2c15.4,0,27.9,12.5,27.9,27.9C840.8,383.6,832,394.5,820,397.6z"/><path d="M769.4,649.7c-17.1,0-32.4,8.2-42.2,20.8c-31.5,0.7-63,2.4-94.2-0.4c-29.3-2.6-43,12-55.1,33.5   c-10.8,19.3-8.9,24.1,12.9,24.2c43.8,0.3,87.6-1,131.4-0.4c8.9,17,26.7,28.7,47.2,28.7c29.4,0,53.3-23.9,53.3-53.3   C822.7,673.6,798.8,649.7,769.4,649.7z M769.4,730.8c-6.9,0-13.2-2.5-18.1-6.7c-6-5.1-9.8-12.7-9.8-21.2   c0-15.4,12.5-27.9,27.9-27.9h0.1c15.4,0,27.9,12.5,27.9,27.9C797.3,718.3,784.8,730.8,769.4,730.8z"/><path d="M466.3,780.9c-16.2-26.4-33.3-52.5-46.4-80.4c-12.5-26.6-32-31.1-56.7-30.7c-22.1,0.3-25.3,4.5-14.5,23.3   c21.1,36.9,43.6,73,64.5,109.9c-6,8.6-9.5,19.1-9.5,30.3c0,29.4,23.9,53.3,53.3,53.3s53.3-23.9,53.3-53.3   C510.3,807.2,491.2,785.4,466.3,780.9z M457,861.3c-15.4,0-27.9-12.5-27.9-27.9c0-2,0.2-4,0.6-5.9c2.7-12.6,13.9-22.1,27.3-22.1   c11.9,0,22.1,7.5,26.1,18v0c1.1,3.1,1.8,6.4,1.8,9.9C484.9,848.8,472.4,861.3,457,861.3z"/></g></g><g id="SvgjsG4376" featureKey="PPkF4s-0" transform="matrix(1.2123310883305733,0,0,1.2123310883305733,-1.8912355612987866,98.03533095292006)" fill="#000"><path d="M16.88 20 l-3.18 0 l0 -6.98 l-4.48 5.2 l-4.48 -5.2 l0 6.98 l-3.18 0 l0 -15.08 l7.66 8.64 l7.66 -8.64 l0 15.08 z M26.24 8.12 l0 11.88 l-3.18 0 l0 -11.88 l-4.26 0 l0 -2.74 l11.68 0 l0 2.74 l-4.24 0 z M38.34 20.36 l-7.38 -14.96 l3.48 0 l3.9 8.08 l3.92 -8.08 l3.5 0 z M68.16 13.04 q0 0.24 -0.04 0.84 q-0.16 1.84 -1.23 3.3 t-2.76 2.28 t-3.65 0.82 q-2.14 0 -3.95 -1.02 t-2.87 -2.76 t-1.06 -3.8 q0 -2.04 1.06 -3.79 t2.87 -2.77 t3.95 -1.02 q2.02 0 3.77 0.95 t2.85 2.57 l-2.72 1.58 q-0.72 -0.98 -1.74 -1.6 t-2.16 -0.62 q-1.28 0 -2.37 0.65 t-1.73 1.73 t-0.64 2.32 t0.64 2.33 t1.73 1.74 t2.37 0.65 q0.92 0 1.82 -0.37 t1.56 -1.01 t0.88 -1.4 l-5.46 0 l0 -2.78 l8.84 0 q0.04 0.8 0.04 1.18 z M81.46 20 l-10.84 0 l0 -14.62 l3.18 0 l0 11.88 l7.66 0 l0 2.74 z M85.72 19.26 q-1.8 -1.02 -2.86 -2.77 t-1.06 -3.81 q0 -2.04 1.06 -3.79 t2.86 -2.77 t3.94 -1.02 t3.96 1.02 t2.88 2.77 t1.06 3.79 q0 2.06 -1.06 3.81 t-2.88 2.77 t-3.96 1.02 t-3.94 -1.02 z M87.30000000000001 8.63 q-1.08 0.65 -1.72 1.73 t-0.64 2.32 t0.64 2.33 t1.72 1.75 t2.36 0.66 t2.37 -0.66 t1.72 -1.75 t0.63 -2.33 t-0.63 -2.32 t-1.72 -1.73 t-2.37 -0.65 t-2.36 0.65 z M110.45000000000002 11.22 q-0.51 0.8 -1.33 1.14 q1 0.34 1.72 1.3 t0.72 2.1 q0 2.26 -1.44 3.25 t-3.68 0.99 l-6.32 0 l0 -14.62 l6.08 0 q4.76 0 4.76 4.06 q0 0.98 -0.51 1.78 z M106.26000000000002 11.18 q0.78 0 1.15 -0.48 t0.37 -1.14 q0 -0.58 -0.44 -1.01 t-1.06 -0.43 l-2.98 0 l0 3.06 l2.96 0 z M107.88000000000001 16.78 q0.52 -0.48 0.52 -1.18 t-0.52 -1.18 t-1.5 -0.48 l-3.08 0 l0 3.32 l3.14 0 q0.92 0 1.44 -0.48 z M119.94000000000001 4.92 l8.02 15.08 l-3.46 0 l-1.16 -2.24 l-6.82 0 l-1.12 2.24 l-3.48 0 z M121.82000000000002 15.059999999999999 l-1.88 -3.82 l-1.86 3.82 l3.74 0 z M139.96 20 l-10.84 0 l0 -14.62 l3.18 0 l0 11.88 l7.66 0 l0 2.74 z M158.99 19.18 q-1.85 1.1 -4.03 1.1 q-2.14 0 -3.95 -1.02 t-2.87 -2.76 t-1.06 -3.8 q0 -2.04 1.06 -3.78 t2.87 -2.76 t3.95 -1.02 q2.16 0 4.02 1.09 t2.92 2.91 l-2.94 1.14 q-0.7 -1 -1.77 -1.64 t-2.23 -0.64 q-1.28 0 -2.36 0.65 t-1.71 1.73 t-0.63 2.32 t0.63 2.33 t1.71 1.74 t2.36 0.65 q1.16 0 2.23 -0.65 t1.77 -1.67 l2.94 1.14 q-1.06 1.84 -2.91 2.94 z M167.26000000000002 19.26 q-1.8 -1.02 -2.86 -2.77 t-1.06 -3.81 q0 -2.04 1.06 -3.79 t2.86 -2.77 t3.94 -1.02 t3.96 1.02 t2.88 2.77 t1.06 3.79 q0 2.06 -1.06 3.81 t-2.88 2.77 t-3.96 1.02 t-3.94 -1.02 z M168.84 8.63 q-1.08 0.65 -1.72 1.73 t-0.64 2.32 t0.64 2.33 t1.72 1.75 t2.36 0.66 t2.37 -0.66 t1.72 -1.75 t0.63 -2.33 t-0.63 -2.32 t-1.72 -1.73 t-2.37 -0.65 t-2.36 0.65 z M184.82 20 l-3.14 0 l0 -15.08 l10.08 8.92 l0 -8.44 l3.16 0 l0 15.06 l-10.1 -8.78 l0 8.32 z M201.54000000000002 16.87 q1.42 0.57 2.6 0.57 q1.24 0 1.97 -0.48 t0.73 -1.14 q0 -0.54 -0.43 -0.88 t-1.09 -0.51 t-1.74 -0.37 q-1.44 -0.24 -2.64 -0.62 t-2.18 -1.32 t-0.98 -2.54 q0 -2.36 1.73 -3.39 t4.07 -1.03 q1.8 0 3.13 0.49 t2.65 1.47 l-1.76 2.4 q-0.98 -0.7 -2.04 -1.1 t-2.1 -0.4 q-0.92 0 -1.72 0.33 t-0.8 1.11 q0 0.48 0.41 0.77 t0.9 0.42 t1.59 0.37 l0.72 0.14 q1.66 0.32 2.75 0.71 t1.89 1.31 t0.8 2.56 q0 2.22 -1.57 3.38 t-4.25 1.16 q-3.92 0 -6.6 -2.28 l1.68 -2.42 q0.86 0.72 2.28 1.29 z M215.48 19.5 q-1.48 -0.76 -2.29 -2.16 t-0.81 -3.26 l0 -8.68 l3.16 0 l0 8.68 q0 1.28 0.55 2.05 t1.32 1.09 t1.53 0.32 q0.74 0 1.51 -0.32 t1.31 -1.09 t0.54 -2.05 l0 -8.68 l3.16 0 l0 8.68 q0 1.86 -0.8 3.26 t-2.28 2.16 t-3.44 0.76 q-1.98 0 -3.46 -0.76 z M239.6 20 l-10.84 0 l0 -14.62 l3.18 0 l0 11.88 l7.66 0 l0 2.74 z M245.7 8.12 l0 11.88 l-3.18 0 l0 -11.88 l-4.26 0 l0 -2.74 l11.68 0 l0 2.74 l-4.24 0 z M252.23999999999998 20 l0 -14.62 l3.16 0 l0 14.62 l-3.16 0 z M262.09999999999997 20 l-3.14 0 l0 -15.08 l10.08 8.92 l0 -8.44 l3.16 0 l0 15.06 l-10.1 -8.78 l0 8.32 z M290.26 13.04 q0 0.24 -0.04 0.84 q-0.16 1.84 -1.23 3.3 t-2.76 2.28 t-3.65 0.82 q-2.14 0 -3.95 -1.02 t-2.87 -2.76 t-1.06 -3.8 q0 -2.04 1.06 -3.79 t2.87 -2.77 t3.95 -1.02 q2.02 0 3.77 0.95 t2.85 2.57 l-2.72 1.58 q-0.72 -0.98 -1.74 -1.6 t-2.16 -0.62 q-1.28 0 -2.37 0.65 t-1.73 1.73 t-0.64 2.32 t0.64 2.33 t1.73 1.74 t2.37 0.65 q0.92 0 1.82 -0.37 t1.56 -1.01 t0.88 -1.4 l-5.46 0 l0 -2.78 l8.84 0 q0.04 0.8 0.04 1.18 z"/></g><g id="SvgjsG4377" featureKey="uwAHB0-0" transform="matrix(0.32213187941108357,0,0,0.32213187941108357,30.922688576275927,138.23471775549643)" fill="#000"><path d="M11.24 5.84 l0 1.2 l-4.84 0 l0 12.96 l-1.32 0 l0 -12.96 l-4.84 0 l0 -1.2 l11 0 z M24.488 12.92 q0 2.7 1.66 4.45 t4.34 1.79 q2.7 0 4.34 -1.77 t1.66 -4.47 q0 -2.74 -1.64 -4.47 t-4.38 -1.77 q-2.68 0 -4.32 1.76 t-1.66 4.48 z M30.488 5.48 q2.16 0 3.82 0.95 t2.57 2.66 t0.93 3.83 q0 3.26 -2.06 5.33 t-5.26 2.11 q-3.22 0 -5.24 -2.09 t-2.08 -5.35 q0.02 -3.26 2.04 -5.32 t5.28 -2.12 z M53.275999999999996 5.84 l5.16 11.88 l5.16 -11.88 l1.88 0 l0 14.16 l-1.32 0 l0 -12.48 l-0.04 0 l-5.4 12.48 l-0.58 0 l-5.48 -12.48 l-0.04 0 l0 12.48 l-1.32 0 l0 -14.16 l1.98 0 z M80.28399999999999 12.92 q0 2.7 1.66 4.45 t4.34 1.79 q2.7 0 4.34 -1.77 t1.66 -4.47 q0 -2.74 -1.64 -4.47 t-4.38 -1.77 q-2.68 0 -4.32 1.76 t-1.66 4.48 z M86.28399999999999 5.48 q2.16 0 3.82 0.95 t2.57 2.66 t0.93 3.83 q0 3.26 -2.06 5.33 t-5.26 2.11 q-3.22 0 -5.24 -2.09 t-2.08 -5.35 q0.02 -3.26 2.04 -5.32 t5.28 -2.12 z M111.45199999999998 12.08 q1.54 0 2.38 -0.69 t0.84 -1.83 t-0.82 -1.82 t-2.44 -0.7 l-2.86 0 l0 5.04 l2.9 0 z M111.05199999999999 5.84 q4.9 0 4.94 3.72 q0 3.14 -3.62 3.64 l4.12 6.8 l-1.5 0 l-3.98 -6.72 l-2.46 0 l0 6.72 l-1.32 0 l0 -14.16 l3.82 0 z M133.98 12.08 q1.54 0 2.38 -0.69 t0.84 -1.83 t-0.82 -1.82 t-2.44 -0.7 l-2.86 0 l0 5.04 l2.9 0 z M133.57999999999998 5.84 q4.9 0 4.94 3.72 q0 3.14 -3.62 3.64 l4.12 6.8 l-1.5 0 l-3.98 -6.72 l-2.46 0 l0 6.72 l-1.32 0 l0 -14.16 l3.82 0 z M152.688 12.92 q0 2.7 1.66 4.45 t4.34 1.79 q2.7 0 4.34 -1.77 t1.66 -4.47 q0 -2.74 -1.64 -4.47 t-4.38 -1.77 q-2.68 0 -4.32 1.76 t-1.66 4.48 z M158.688 5.48 q2.16 0 3.82 0.95 t2.57 2.66 t0.93 3.83 q0 3.26 -2.06 5.33 t-5.26 2.11 q-3.22 0 -5.24 -2.09 t-2.08 -5.35 q0.02 -3.26 2.04 -5.32 t5.28 -2.12 z M179.15599999999998 5.84 l3.52 12.54 l0.04 0 l3.58 -12.54 l1.68 0 l3.58 12.54 l0.04 0 l3.52 -12.54 l1.36 0 l-4.12 14.14 l-0.02 0.02 l-1.6 0 l-3.58 -12.6 l-0.04 0 l-3.58 12.6 l-1.62 0 l-4.12 -14.16 l1.36 0 z M209.24399999999997 5.84 l1.2 0 l0 4.56 l-1.2 0 l0 -4.56 z M229.09199999999996 5.48 q2.46 0 3.86 1.78 l-1.14 0.82 q-1.04 -1.4 -2.76 -1.4 q-1.4 0 -2.27 0.72 t-0.91 1.96 q0 1.08 0.66 1.75 t2.3 1.13 q2.16 0.64 2.88 1.13 t1.09 1.21 t0.37 1.8 q0 1.72 -1.23 2.83 t-3.17 1.15 q-3.06 0 -4.6 -2.14 l1.26 -0.84 q1.06 1.76 3.24 1.78 q1.42 0 2.3 -0.79 t0.88 -1.99 q0 -0.7 -0.25 -1.15 t-0.76 -0.78 t-1.3 -0.6 t-1.85 -0.63 q-1.6 -0.52 -2.37 -1.46 t-0.77 -2.4 q0 -1.72 1.29 -2.8 t3.25 -1.08 z M266.748 5.48 q2.46 0 3.86 1.78 l-1.14 0.82 q-1.04 -1.4 -2.76 -1.4 q-1.4 0 -2.27 0.72 t-0.91 1.96 q0 1.08 0.66 1.75 t2.3 1.13 q2.16 0.64 2.88 1.13 t1.09 1.21 t0.37 1.8 q0 1.72 -1.23 2.83 t-3.17 1.15 q-3.06 0 -4.6 -2.14 l1.26 -0.84 q1.06 1.76 3.24 1.78 q1.42 0 2.3 -0.79 t0.88 -1.99 q0 -0.7 -0.25 -1.15 t-0.76 -0.78 t-1.3 -0.6 t-1.85 -0.63 q-1.6 -0.52 -2.37 -1.46 t-0.77 -2.4 q0 -1.72 1.29 -2.8 t3.25 -1.08 z M284.89599999999996 12.92 q0 2.7 1.66 4.45 t4.34 1.79 q2.7 0 4.34 -1.77 t1.66 -4.47 q0 -2.74 -1.64 -4.47 t-4.38 -1.77 q-2.68 0 -4.32 1.76 t-1.66 4.48 z M290.89599999999996 5.48 q2.16 0 3.82 0.95 t2.57 2.66 t0.93 3.83 q0 3.26 -2.06 5.33 t-5.26 2.11 q-3.22 0 -5.24 -2.09 t-2.08 -5.35 q0.02 -3.26 2.04 -5.32 t5.28 -2.12 z M313.164 5.84 l0 12.96 l6.6 0 l0 1.2 l-7.92 0 l0 -14.16 l1.32 0 z M333.572 5.84 l0 8.5 q0 2.3 0.95 3.54 t2.89 1.28 q3.8 0 3.84 -5.02 l0 -8.3 l1.32 0 l0 8.64 q0 2.78 -1.3 4.32 t-3.86 1.56 q-2.52 0 -3.83 -1.53 t-1.33 -4.25 l0 -8.74 l1.32 0 z M366.16 5.84 l0 1.2 l-4.84 0 l0 12.96 l-1.32 0 l0 -12.96 l-4.84 0 l0 -1.2 l11 0 z M380.32800000000003 5.84 l0 14.16 l-1.32 0 l0 -14.16 l1.32 0 z M395.276 12.92 q0 2.7 1.66 4.45 t4.34 1.79 q2.7 0 4.34 -1.77 t1.66 -4.47 q0 -2.74 -1.64 -4.47 t-4.38 -1.77 q-2.68 0 -4.32 1.76 t-1.66 4.48 z M401.276 5.48 q2.16 0 3.82 0.95 t2.57 2.66 t0.93 3.83 q0 3.26 -2.06 5.33 t-5.26 2.11 q-3.22 0 -5.24 -2.09 t-2.08 -5.35 q0.02 -3.26 2.04 -5.32 t5.28 -2.12 z M423.92400000000004 5.84 l8.62 12.4 l0.04 0 l0 -12.4 l1.32 0 l0 14.16 l-1.7 0 l-8.62 -12.4 l-0.04 0 l0 12.4 l-1.32 0 l0 -14.16 l1.7 0 z M452.4920000000001 5.48 q2.46 0 3.86 1.78 l-1.14 0.82 q-1.04 -1.4 -2.76 -1.4 q-1.4 0 -2.27 0.72 t-0.91 1.96 q0 1.08 0.66 1.75 t2.3 1.13 q2.16 0.64 2.88 1.13 t1.09 1.21 t0.37 1.8 q0 1.72 -1.23 2.83 t-3.17 1.15 q-3.06 0 -4.6 -2.14 l1.26 -0.84 q1.06 1.76 3.24 1.78 q1.42 0 2.3 -0.79 t0.88 -1.99 q0 -0.7 -0.25 -1.15 t-0.76 -0.78 t-1.3 -0.6 t-1.85 -0.63 q-1.6 -0.52 -2.37 -1.46 t-0.77 -2.4 q0 -1.72 1.29 -2.8 t3.25 -1.08 z M472.0200000000001 18.2 l-1.54 4.56 l-1.18 0 l1.32 -4.56 l1.4 0 z M511.27600000000007 5.84 l0 1.2 l-4.84 0 l0 12.96 l-1.32 0 l0 -12.96 l-4.84 0 l0 -1.2 l11 0 z M524.5240000000001 12.92 q0 2.7 1.66 4.45 t4.34 1.79 q2.7 0 4.34 -1.77 t1.66 -4.47 q0 -2.74 -1.64 -4.47 t-4.38 -1.77 q-2.68 0 -4.32 1.76 t-1.66 4.48 z M530.5240000000001 5.48 q2.16 0 3.82 0.95 t2.57 2.66 t0.93 3.83 q0 3.26 -2.06 5.33 t-5.26 2.11 q-3.22 0 -5.24 -2.09 t-2.08 -5.35 q0.02 -3.26 2.04 -5.32 t5.28 -2.12 z M555.432 18.8 q3.04 0 4.8 -1.54 t1.78 -4.24 q0 -2.88 -1.75 -4.42 t-4.89 -1.56 l-2.76 0 l0 11.76 l2.82 0 z M555.712 5.84 q3.56 0 5.57 1.92 t2.05 5.26 q0 1.96 -0.89 3.55 t-2.56 2.51 t-4.09 0.92 l-4.5 0 l0 -14.16 l4.42 0 z M578.62 15.04 l6.5 0 l-3.2 -7.76 z M582.66 5.84 l5.96 14.16 l-1.48 0 l-1.54 -3.76 l-7.5 0 l-1.6 3.76 l-1.38 0 l6.18 -14.16 l1.36 0 z M600.8480000000001 5.84 l4.28 6.72 l4.38 -6.72 l1.48 0 l-5.2 8.06 l0 6.1 l-1.32 0 l0 -6.1 l-5.2 -8.06 l1.58 0 z M623.5360000000001 5.84 l1.2 0 l0 4.56 l-1.2 0 l0 -4.56 z M643.3840000000001 5.48 q2.46 0 3.86 1.78 l-1.14 0.82 q-1.04 -1.4 -2.76 -1.4 q-1.4 0 -2.27 0.72 t-0.91 1.96 q0 1.08 0.66 1.75 t2.3 1.13 q2.16 0.64 2.88 1.13 t1.09 1.21 t0.37 1.8 q0 1.72 -1.23 2.83 t-3.17 1.15 q-3.06 0 -4.6 -2.14 l1.26 -0.84 q1.06 1.76 3.24 1.78 q1.42 0 2.3 -0.79 t0.88 -1.99 q0 -0.7 -0.25 -1.15 t-0.76 -0.78 t-1.3 -0.6 t-1.85 -0.63 q-1.6 -0.52 -2.37 -1.46 t-0.77 -2.4 q0 -1.72 1.29 -2.8 t3.25 -1.08 z M678.3200000000002 5.84 l0 14.16 l-1.32 0 l0 -14.16 l1.32 0 z M694.5680000000002 5.84 l8.62 12.4 l0.04 0 l0 -12.4 l1.32 0 l0 14.16 l-1.7 0 l-8.62 -12.4 l-0.04 0 l0 12.4 l-1.32 0 l0 -14.16 l1.7 0 z M720.7960000000002 5.84 l8.62 12.4 l0.04 0 l0 -12.4 l1.32 0 l0 14.16 l-1.7 0 l-8.62 -12.4 l-0.04 0 l0 12.4 l-1.32 0 l0 -14.16 l1.7 0 z M745.7240000000002 12.92 q0 2.7 1.66 4.45 t4.34 1.79 q2.7 0 4.34 -1.77 t1.66 -4.47 q0 -2.74 -1.64 -4.47 t-4.38 -1.77 q-2.68 0 -4.32 1.76 t-1.66 4.48 z M751.7240000000002 5.48 q2.16 0 3.82 0.95 t2.57 2.66 t0.93 3.83 q0 3.26 -2.06 5.33 t-5.26 2.11 q-3.22 0 -5.24 -2.09 t-2.08 -5.35 q0.02 -3.26 2.04 -5.32 t5.28 -2.12 z M772.0920000000001 5.84 l4.56 12.42 l4.6 -12.42 l1.4 0 l-5.38 14.16 l-1.32 0 l-5.28 -14.16 l1.42 0 z M796.8600000000001 15.04 l6.5 0 l-3.2 -7.76 z M800.9000000000001 5.84 l5.96 14.16 l-1.48 0 l-1.54 -3.76 l-7.5 0 l-1.6 3.76 l-1.38 0 l6.18 -14.16 l1.36 0 z M828.8680000000002 5.84 l0 1.2 l-4.84 0 l0 12.96 l-1.32 0 l0 -12.96 l-4.84 0 l0 -1.2 l11 0 z M843.0360000000002 5.84 l0 14.16 l-1.32 0 l0 -14.16 l1.32 0 z M857.9840000000003 12.92 q0 2.7 1.66 4.45 t4.34 1.79 q2.7 0 4.34 -1.77 t1.66 -4.47 q0 -2.74 -1.64 -4.47 t-4.38 -1.77 q-2.68 0 -4.32 1.76 t-1.66 4.48 z M863.9840000000003 5.48 q2.16 0 3.82 0.95 t2.57 2.66 t0.93 3.83 q0 3.26 -2.06 5.33 t-5.26 2.11 q-3.22 0 -5.24 -2.09 t-2.08 -5.35 q0.02 -3.26 2.04 -5.32 t5.28 -2.12 z M886.6320000000002 5.84 l8.62 12.4 l0.04 0 l0 -12.4 l1.32 0 l0 14.16 l-1.7 0 l-8.62 -12.4 l-0.04 0 l0 12.4 l-1.32 0 l0 -14.16 l1.7 0 z"/></g>
			</g>
		</svg>
	